<svg version="1.1" id="Layer_1" xmlns="http://www.w3.org/2000/svg" xmlns:xlink="http://www.w3.org/1999/xlink" x="0px" y="0px"
	 viewBox="0 0 512 512" style="enable-background:new 0 0 512 512;" xml:space="preserve">
<path id="XMLID_12_" d="M340.2,340.2c64.8-64.8,110.4-134.9,129-191.8c45.2,89.5,30.5,201.7-44.3,276.5s-186.9,89.6-276.5,44.3
	C205.2,450.6,275.3,405,340.2,340.2z"/>
<path id="XMLID_13_" d="M171.8,171.8C107,236.7,61.4,306.8,42.8,363.7C-2.4,274.1,12.4,162,87.2,87.2S274.1-2.4,363.7,42.8
	C306.8,61.4,236.7,107,171.8,171.8z"/>
<path id="XMLID_10_" d="M42.8,363.7c11.1,22.1,25.9,42.7,44.3,61.2c18.4,18.4,39.1,33.2,61.2,44.3c-42.8,14-78.2,12.7-98.2-7.3
	C30.2,441.9,28.9,406.5,42.8,363.7z"/>
<path id="XMLID_11_" d="M461.8,50.2c20,20,21.3,55.3,7.3,98.2c-11.1-22.1-25.9-42.7-44.3-61.2c-18.4-18.4-39.1-33.2-61.2-44.3
	C406.5,28.9,441.9,30.2,461.8,50.2z"/>
</svg>